<svg width="332" height="86" viewBox="0 0 332 86" fill="none" xmlns="http://www.w3.org/2000/svg">
<path d="M249.149 49.9318C251.115 49.8008 253.081 49.672 255.048 49.5452C256.905 49.4254 258.762 49.3041 260.619 49.1828L260.621 49.1827C267.243 48.7502 273.867 48.3176 280.493 47.9534C281.334 47.9073 282.455 47.8343 283.715 47.7524L283.716 47.7523C286.215 47.5898 289.262 47.3916 291.757 47.2953C293.626 47.2232 295.228 47.206 296.066 47.3114C296.27 47.3371 296.47 47.3743 296.625 47.4394C296.68 47.4626 296.834 47.5273 296.983 47.7111C297.049 47.7926 297.255 48.0632 297.36 48.635C297.494 49.3691 297.368 50.0058 297.245 50.3431C297.143 50.6231 297.025 50.7713 296.976 50.8288C296.915 50.9014 296.856 50.952 296.813 50.9859C296.726 51.0543 296.631 51.1088 296.54 51.1539C296.356 51.2463 296.108 51.341 295.802 51.4408C295.64 51.4932 295.397 51.5571 295.083 51.6304L295.128 51.6277C295.715 51.5918 296.61 51.4676 297.554 51.3367C298.199 51.247 298.868 51.1543 299.477 51.0844C300.194 51.0022 300.857 50.9483 301.241 50.9974C301.335 51.0093 301.457 51.032 301.574 51.0912C301.625 51.1172 301.738 51.1802 301.857 51.3318C301.959 51.462 302.272 51.9366 302.277 52.8614C303.399 52.841 304.365 52.8342 305.123 52.8445C305.363 52.8478 305.662 52.8561 305.948 52.9137C306.211 52.9667 306.566 53.0777 306.868 53.403C306.942 53.4824 307.283 53.8684 307.347 54.7817C307.413 55.7218 307.124 56.2799 307.059 56.3973C306.897 56.6911 306.699 56.8241 306.632 56.8692L306.631 56.8702C306.433 57.0037 306.18 57.1035 305.988 57.1318C303.541 57.4929 301.073 57.6861 298.624 57.8779C298.38 57.897 298.136 57.9161 297.893 57.9354C294.692 58.1882 291.49 58.4372 288.288 58.6824C288.226 58.7854 288.171 58.8469 288.141 58.8777C288.067 58.9542 288.002 58.9935 287.974 59.0093C287.866 59.072 287.725 59.1107 287.613 59.1386C287.353 59.203 286.947 59.2755 286.425 59.3548C284.328 59.6736 280.137 60.137 275.119 60.646C274.581 60.7005 274.034 60.7556 273.479 60.811C273.482 60.8591 273.484 60.9078 273.485 60.9571C273.507 61.908 273.162 62.7038 272.713 62.7346C234.602 65.3496 211.682 67.2194 173.164 70.5909C169.171 70.9404 162.371 71.5685 154.356 72.3088L154.354 72.309C135.679 74.0341 110.409 76.3682 98.685 77.2069C89.1388 77.8898 79.5429 78.4267 69.9351 78.8046C63.3457 79.4202 56.7548 80.0036 50.1621 80.5409C45.0684 81.1872 40.9496 81.7062 38.2705 82.0358C37.0261 82.1889 36.0908 82.3013 35.5124 82.3667C35.2252 82.3992 35.0201 82.4207 34.9091 82.4296C34.8815 82.4318 34.8548 82.4336 34.8321 82.4344C34.8217 82.4347 34.8052 82.4352 34.787 82.4344C34.7771 82.434 34.7546 82.432 34.7404 82.4301C34.7143 82.4254 34.623 82.3948 34.5579 82.3591C34.2527 81.981 34.0564 80.3973 34.2976 79.4522C31.6196 79.4423 34.6866 79.8719 32.0149 79.8343C31.1845 79.8226 30.3412 79.8287 29.4912 79.8349C26.4794 79.8567 29.1264 80.3325 26.2242 79.5654C25.939 79.49 25.6906 79.4001 25.4911 79.2851C25.392 79.2281 25.2812 79.1516 25.1748 79.0427C25.0849 78.9507 24.9079 78.747 24.7717 78.3455C24.5934 77.8195 24.5464 77.1287 24.6739 76.5051C24.7705 76.0327 24.9347 75.7632 25.0134 75.6462C25.1843 75.3922 25.3962 75.2232 25.5656 75.1052C26.2743 74.6117 27.6385 74.1033 29.1865 73.6186C31.6031 72.8618 28.9259 71.6528 31.2027 71.0915L31.203 71.0914C31.8869 70.9228 32.4998 70.7717 33.0025 70.6434C51.2669 65.9818 63.4969 63.8138 82.2324 62.5905C82.2304 62.5524 82.2291 62.514 82.2283 62.4752C82.2094 61.5241 82.5579 60.734 83.0068 60.7106C85.7754 60.5661 88.5438 60.4219 91.3122 60.2778C124.925 58.5271 158.522 56.7774 192.118 54.533C200.357 53.7257 208.597 52.9917 216.843 52.3156C222.993 51.7129 230.025 51.0377 235.908 50.5042C240.907 50.0509 245.083 49.6993 247.181 49.5817C247.705 49.5524 248.108 49.5371 248.365 49.5392C248.482 49.5402 248.605 49.5444 248.695 49.5638C248.717 49.5687 248.765 49.5799 248.82 49.6064C248.845 49.6187 248.901 49.6475 248.967 49.7071L248.97 49.7095C248.991 49.7279 249.064 49.7932 249.149 49.9318Z" fill="white"/>
<path d="M36.4854 26.6627C36.4073 26.8972 36.5244 27.0536 36.7587 27.0536H43.1611C43.4344 27.0536 43.5906 26.8972 43.6686 26.6627L44.9179 22.5577H53.5456L54.7948 26.6627C54.8729 26.8972 55.0291 27.0536 55.3023 27.0536H61.7438C61.978 27.0536 62.0952 26.8972 62.0171 26.6627L53.0381 0.860086C52.96 0.625516 52.8038 0.469138 52.5305 0.469138H46.1671C45.8939 0.469138 45.7377 0.625516 45.6596 0.860086L36.4854 26.6627ZM46.6747 16.8499L49.2512 8.56176H49.3684L51.8278 16.8499H46.6747Z" fill="#151A03"/>
<path d="M65.3217 20.9548C66.7271 25.2943 70.1626 27.5227 74.9644 27.5227C79.6491 27.5227 83.0065 25.2943 84.49 21.463C84.6071 21.1894 84.568 21.033 84.2948 20.9157L79.1025 18.6482C78.8293 18.5309 78.6731 18.6091 78.556 18.8828C77.8143 20.4466 76.8773 21.3849 75.0815 21.3849C73.4028 21.3849 72.3488 20.5639 71.8803 19.0783C71.607 18.2573 71.4899 17.4363 71.4899 13.7614C71.4899 10.0865 71.607 9.26547 71.8803 8.44448C72.3488 6.95887 73.4028 6.13788 75.0815 6.13788C76.8773 6.13788 77.8143 7.07616 78.556 8.63995C78.6731 8.91361 78.8293 8.9918 79.1025 8.87452L84.2948 6.60702C84.568 6.48974 84.6071 6.33336 84.49 6.05969C83.0065 2.2284 79.6491 0 74.9644 0C70.1626 0 66.7271 2.2284 65.3217 6.56792C64.7361 8.36629 64.5409 9.81279 64.5409 13.7614C64.5409 17.7099 64.7361 19.1565 65.3217 20.9548Z" fill="#151A03"/>
<path d="M101.481 27.0536C101.715 27.0536 101.871 26.8972 101.871 26.6627V6.8025C101.871 6.64612 101.949 6.56792 102.105 6.56792H108.625C108.859 6.56792 109.015 6.41155 109.015 6.17698V0.860086C109.015 0.625516 108.859 0.469138 108.625 0.469138H88.2463C88.012 0.469138 87.8559 0.625516 87.8559 0.860086V6.17698C87.8559 6.41155 88.012 6.56792 88.2463 6.56792H94.7658C94.922 6.56792 95.0001 6.64612 95.0001 6.8025V26.6627C95.0001 26.8972 95.1562 27.0536 95.3905 27.0536H101.481Z" fill="#151A03"/>
<path d="M122.639 26.6627C122.561 26.8972 122.678 27.0536 122.912 27.0536H129.314C129.588 27.0536 129.744 26.8972 129.822 26.6627L131.071 22.5577H139.699L140.948 26.6627C141.026 26.8972 141.182 27.0536 141.456 27.0536H147.897C148.131 27.0536 148.248 26.8972 148.17 26.6627L139.191 0.860086C139.113 0.625516 138.957 0.469138 138.684 0.469138H132.32C132.047 0.469138 131.891 0.625516 131.813 0.860086L122.639 26.6627ZM132.828 16.8499L135.404 8.56176H135.522L137.981 16.8499H132.828Z" fill="#151A03"/>
<path d="M152.809 20.9939C154.215 25.3334 158.08 27.5227 162.803 27.5227C167.644 27.5227 171.392 25.138 172.797 20.7202C173.344 19.0783 173.5 17.0844 173.5 14.5433V12.5103C173.5 12.2758 173.344 12.1194 173.11 12.1194H163.623C163.389 12.1194 163.233 12.2758 163.233 12.5103V16.928C163.233 17.1626 163.389 17.319 163.623 17.319H166.512C166.668 17.319 166.746 17.3972 166.746 17.5536C166.746 18.2573 166.668 18.8046 166.512 19.2737C166.083 20.6421 164.716 21.3849 162.999 21.3849C161.086 21.3849 159.875 20.5248 159.368 19.0392C159.095 18.14 158.977 16.928 158.977 13.7614C158.977 10.5947 159.056 9.42185 159.368 8.48357C159.836 6.99797 161.008 6.13788 162.803 6.13788C164.638 6.13788 165.692 6.84159 166.59 8.2881C166.707 8.48357 166.941 8.56176 167.176 8.44448L172.251 6.29426C172.485 6.17698 172.563 5.94241 172.446 5.66874C170.963 2.2675 167.683 0 162.803 0C158.08 0 154.215 2.18931 152.809 6.52883C152.185 8.56176 152.028 10.1256 152.028 13.7614C152.028 17.3972 152.185 18.961 152.809 20.9939Z" fill="#151A03"/>
<path d="M176.028 26.6627C175.95 26.8972 176.067 27.0536 176.301 27.0536H182.704C182.977 27.0536 183.133 26.8972 183.211 26.6627L184.46 22.5577H193.088L194.337 26.6627C194.415 26.8972 194.572 27.0536 194.845 27.0536H201.286C201.52 27.0536 201.638 26.8972 201.56 26.6627L192.581 0.860086C192.502 0.625516 192.346 0.469138 192.073 0.469138H185.71C185.436 0.469138 185.28 0.625516 185.202 0.860086L176.028 26.6627ZM186.217 16.8499L188.794 8.56176H188.911L191.37 16.8499H186.217Z" fill="#151A03"/>
<path d="M206.042 26.6627C206.042 26.8972 206.199 27.0536 206.433 27.0536H212.523C212.757 27.0536 212.913 26.8972 212.913 26.6627V0.860086C212.913 0.625516 212.757 0.469138 212.523 0.469138H206.433C206.199 0.469138 206.042 0.625516 206.042 0.860086V26.6627Z" fill="#151A03"/>
<path d="M219.165 26.6627C219.165 26.8972 219.321 27.0536 219.555 27.0536H225.021C225.255 27.0536 225.411 26.8972 225.411 26.6627V11.6502H225.645L233.57 26.6627C233.687 26.9363 233.961 27.0536 234.234 27.0536H239.973C240.207 27.0536 240.363 26.8972 240.363 26.6627V0.860086C240.363 0.625516 240.207 0.469138 239.973 0.469138H234.507C234.273 0.469138 234.117 0.625516 234.117 0.860086V15.9116H233.961L225.958 0.860086C225.84 0.586421 225.567 0.469138 225.294 0.469138H219.555C219.321 0.469138 219.165 0.625516 219.165 0.860086V26.6627Z" fill="#151A03"/>
<path d="M256.186 27.5227C263.292 27.5227 267.039 23.926 267.039 19.0001C267.039 13.9568 264.072 11.3766 258.256 10.5556L256.85 10.3601C254.313 10.0474 253.454 9.30456 253.454 8.13172C253.454 6.84159 254.43 5.90331 256.382 5.90331C258.49 5.90331 260.481 6.64612 262.355 7.89715C262.55 8.01443 262.745 7.97534 262.901 7.77986L265.829 3.51853C265.985 3.28396 265.946 3.08849 265.751 2.93211C263.37 1.13375 259.934 0 256.265 0C250.252 0 246.388 3.32306 246.388 8.2881C246.388 13.2531 249.511 15.8334 255.249 16.6544L256.655 16.8499C259.271 17.2017 260.012 17.9445 260.012 19.0783C260.012 20.5639 258.724 21.5803 256.265 21.5803C253.61 21.5803 251.111 20.3293 249.511 18.9219C249.355 18.7655 249.12 18.7655 248.964 18.961L245.451 23.105C245.255 23.3005 245.294 23.5742 245.49 23.7305C247.481 25.6853 251.853 27.5227 256.186 27.5227Z" fill="#151A03"/>
<path d="M283.699 27.0536C283.934 27.0536 284.09 26.8972 284.09 26.6627V6.8025C284.09 6.64612 284.168 6.56792 284.324 6.56792H290.844C291.078 6.56792 291.234 6.41155 291.234 6.17698V0.860086C291.234 0.625516 291.078 0.469138 290.844 0.469138H270.465C270.231 0.469138 270.075 0.625516 270.075 0.860086V6.17698C270.075 6.41155 270.231 6.56792 270.465 6.56792H276.985C277.141 6.56792 277.219 6.64612 277.219 6.8025V26.6627C277.219 26.8972 277.375 27.0536 277.609 27.0536H283.699Z" fill="#151A03"/>
<path d="M37.5126 75.9006C39.6866 82.6133 44.9404 85.9999 52.1267 85.9999C59.0714 85.9999 64.144 82.6133 66.4388 76.8682C66.62 76.5659 66.4992 76.2635 66.1369 76.1425L59.5545 73.1793C59.1922 72.9978 58.8902 73.1188 58.709 73.4816C57.5617 76.1425 55.6292 78.1382 52.187 78.1382C48.9864 78.1382 46.9332 76.4449 46.0274 73.6026C45.5443 72.0907 45.3631 70.6393 45.3631 64.7733C45.3631 58.9072 45.5443 57.4558 46.0274 55.944C46.9332 53.1016 48.9864 51.4083 52.187 51.4083C55.6292 51.4083 57.5617 53.404 58.709 56.0649C58.8902 56.4278 59.1922 56.5487 59.5545 56.3673L66.1369 53.404C66.4992 53.2831 66.62 52.9807 66.4388 52.6783C64.144 46.9332 59.0714 43.5466 52.1267 43.5466C44.9404 43.5466 39.6866 46.9332 37.5126 53.6459C36.6067 56.3068 36.3652 58.4234 36.3652 64.7733C36.3652 71.1231 36.6067 73.2397 37.5126 75.9006Z" fill="#151A03"/>
<path d="M90.2438 85.9999C97.4301 85.9999 103.107 82.6738 105.22 76.0216C106.126 73.1793 106.368 70.8812 106.368 64.7733C106.368 58.6653 106.126 56.3673 105.22 53.525C103.107 46.8727 97.4301 43.5466 90.2438 43.5466C83.0575 43.5466 77.381 46.8727 75.2674 53.525C74.3615 56.3673 74.12 58.6653 74.12 64.7733C74.12 70.8812 74.3615 73.1793 75.2674 76.0216C77.381 82.6738 83.0575 85.9999 90.2438 85.9999ZM90.2438 78.1382C86.862 78.1382 84.688 76.4449 83.7822 73.6026C83.2991 72.1512 83.1179 70.1555 83.1179 64.7733C83.1179 59.391 83.2991 57.3954 83.7822 55.944C84.688 53.1016 86.862 51.4083 90.2438 51.4083C93.6256 51.4083 95.7996 53.1016 96.7054 55.944C97.1885 57.3954 97.3697 59.391 97.3697 64.7733C97.3697 70.1555 97.1885 72.1512 96.7054 73.6026C95.7996 76.4449 93.6256 78.1382 90.2438 78.1382Z" fill="#151A03"/>
<path d="M132.512 85.3347C132.874 85.3347 133.116 85.0928 133.236 84.7299L146.28 44.8771C146.401 44.4538 146.16 44.2119 145.797 44.2119H138.007C137.584 44.2119 137.343 44.3933 137.222 44.8166L129.251 71.7883H129.07L120.857 44.8166C120.736 44.3933 120.494 44.2119 120.072 44.2119H112.221C111.798 44.2119 111.557 44.4538 111.678 44.8771L124.722 84.7299C124.842 85.0928 125.084 85.3347 125.507 85.3347H132.512Z" fill="#151A03"/>
<path d="M153.873 84.7299C153.873 85.0928 154.114 85.3347 154.477 85.3347H162.146C162.508 85.3347 162.75 85.0928 162.75 84.7299V44.8166C162.75 44.4538 162.508 44.2119 162.146 44.2119H154.477C154.114 44.2119 153.873 44.4538 153.873 44.8166V84.7299Z" fill="#151A03"/>
<path d="M173.641 84.7299C173.641 85.0928 173.882 85.3347 174.245 85.3347H189.523C196.709 85.3347 201.722 82.2505 203.714 76.0821C204.439 73.784 204.801 71.486 204.801 64.7733C204.801 58.0606 204.439 55.7625 203.714 53.4645C201.722 47.2961 196.709 44.2119 189.523 44.2119H174.245C173.882 44.2119 173.641 44.4538 173.641 44.8166V84.7299ZM182.518 77.0497V52.4969C182.518 52.255 182.639 52.134 182.88 52.134H187.53C191.637 52.134 194.113 53.3435 195.139 56.6697C195.562 57.8791 195.803 59.4515 195.803 64.7733C195.803 70.0951 195.562 71.6674 195.139 72.8769C194.113 76.203 191.637 77.4125 187.53 77.4125H182.88C182.639 77.4125 182.518 77.2915 182.518 77.0497Z" fill="#151A03"/>
<path d="M213.913 68.5838H231.305C231.667 68.5838 231.909 68.3419 231.909 67.979V61.8106C231.909 61.4478 231.667 61.2059 231.305 61.2059H213.913C213.551 61.2059 213.309 61.4478 213.309 61.8106V67.979C213.309 68.3419 213.551 68.5838 213.913 68.5838Z" fill="#151A03"/>
<path d="M246.016 84.7299C246.016 85.0928 246.257 85.3347 246.62 85.3347H253.866C254.229 85.3347 254.47 85.0928 254.47 84.7299V44.8166C254.47 44.4538 254.229 44.2119 253.866 44.2119H247.103C246.68 44.2119 246.318 44.3328 246.016 44.5747L239.132 49.5336C238.83 49.7755 238.709 50.0174 238.709 50.3803V57.8792C238.709 58.3629 239.011 58.4839 239.373 58.242L245.895 53.7669H246.016V84.7299Z" fill="#151A03"/>
<path d="M269.487 84.7299C269.306 85.0928 269.426 85.3347 269.91 85.3347H277.579C278.002 85.3347 278.122 85.2742 278.304 84.9114L288.268 66.648C290.2 63.1405 291.287 59.9958 291.287 56.4882C291.287 48.3846 285.369 43.5466 277.519 43.5466C269.728 43.5466 263.75 48.3846 263.75 56.6697C263.75 64.229 269.064 69.067 275.526 69.067C276.613 69.067 277.639 68.8856 278.062 68.7041L278.183 68.8251L269.487 84.7299ZM277.519 62.1124C274.197 62.1124 272.084 59.7539 272.084 56.3673C272.084 53.0412 274.197 50.6827 277.519 50.6827C280.84 50.6827 282.954 53.0412 282.954 56.3673C282.954 59.7539 280.84 62.1124 277.519 62.1124Z" fill="#151A03"/>
<path opacity="0.9" d="M249.146 50.2138C251.112 50.0828 253.078 49.954 255.045 49.8271C256.902 49.7074 258.758 49.5861 260.615 49.4648L260.618 49.4647C267.239 49.0322 273.864 48.5996 280.49 48.2354C281.331 48.1892 282.452 48.1163 283.712 48.0343L283.713 48.0343C286.211 47.8718 289.258 47.6736 291.754 47.5773C293.623 47.5052 295.225 47.488 296.063 47.5934C296.267 47.6191 296.467 47.6563 296.622 47.7213C296.677 47.7445 296.831 47.8093 296.98 47.9931C297.046 48.0745 297.251 48.3452 297.356 48.917C297.491 49.651 297.365 50.2877 297.242 50.625C297.14 50.9051 297.021 51.0533 296.973 51.1108C296.911 51.1834 296.853 51.234 296.81 51.2679C296.723 51.3363 296.627 51.3907 296.537 51.4359C296.353 51.5283 296.105 51.623 295.798 51.7228C295.637 51.7752 295.393 51.8391 295.08 51.9124L295.124 51.9097C295.712 51.8738 296.607 51.7496 297.551 51.6186C298.196 51.529 298.865 51.4363 299.473 51.3664C300.19 51.2841 300.854 51.2302 301.238 51.2793C301.332 51.2913 301.454 51.314 301.57 51.3732C301.622 51.3992 301.734 51.4622 301.854 51.6138C301.956 51.744 302.269 52.2186 302.274 53.1434C303.396 53.123 304.362 53.1162 305.119 53.1265C305.36 53.1298 305.659 53.1381 305.944 53.1956C306.207 53.2486 306.563 53.3597 306.865 53.685C306.939 53.7644 307.28 54.1504 307.344 55.0637C307.41 56.0038 307.12 56.5619 307.056 56.6793C306.894 56.9731 306.696 57.1061 306.629 57.1512L306.628 57.1522C306.429 57.2856 306.176 57.3854 305.984 57.4138C303.538 57.7748 301.07 57.9681 298.621 58.1599C298.377 58.179 298.133 58.1981 297.889 58.2173C294.688 58.4702 291.487 58.7192 288.285 58.9644C288.223 59.0673 288.167 59.1289 288.138 59.1597C288.064 59.2362 287.999 59.2755 287.971 59.2913C287.862 59.3539 287.722 59.3927 287.609 59.4206C287.35 59.485 286.943 59.5574 286.421 59.6368C284.325 59.9556 280.133 60.419 275.116 60.9279C274.578 60.9825 274.031 61.0375 273.475 61.093C273.479 61.1411 273.481 61.1898 273.482 61.2391C273.504 62.19 273.159 62.9858 272.71 63.0166C234.599 65.6316 211.678 67.5014 173.161 70.8729C169.168 71.2224 162.368 71.8505 154.353 72.5908L154.351 72.591C135.675 74.316 110.405 76.6502 98.6818 77.4889C89.1356 78.1717 79.5396 78.7087 69.9319 79.0866C63.3425 79.7022 56.7515 80.2856 50.1589 80.8229C45.0652 81.4692 40.9463 81.9882 38.2673 82.3178C37.0228 82.4709 36.0875 82.5833 35.5092 82.6487C35.2219 82.6812 35.0169 82.7027 34.9059 82.7116C34.8783 82.7138 34.8515 82.7156 34.8289 82.7164C34.8185 82.7167 34.8019 82.7171 34.7838 82.7164C34.7739 82.7159 34.7514 82.714 34.7372 82.7121C34.7111 82.7073 34.6198 82.6768 34.5547 82.6411C34.2495 82.263 34.0532 80.6793 34.2944 79.7342C31.6163 79.7242 34.6834 80.1539 32.0117 80.1163C31.1814 80.1046 30.3382 80.1107 29.4883 80.1169L29.488 80.1169C26.4762 80.1387 29.1232 80.6145 26.221 79.8473C25.9358 79.7719 25.6874 79.6821 25.4878 79.5671C25.3888 79.51 25.278 79.4336 25.1716 79.3247C25.0817 79.2326 24.9046 79.029 24.7685 78.6274C24.5902 78.1015 24.5432 77.4107 24.6707 76.787C24.7673 76.3147 24.9315 76.0452 25.0102 75.9282C25.181 75.6741 25.393 75.5051 25.5624 75.3872C26.2711 74.8937 27.6353 74.3853 29.1833 73.9005C31.5999 73.1438 28.9226 71.9348 31.1995 71.3734C31.8836 71.2048 32.4965 71.0537 32.9993 70.9253C51.2637 66.2638 63.4937 64.0958 82.2292 62.8725C82.2272 62.8344 82.2258 62.7959 82.2251 62.7572C82.2062 61.806 82.5547 61.016 83.0036 60.9926C85.7722 60.8481 88.5406 60.7039 91.309 60.5597C124.922 58.8091 158.519 57.0594 192.115 54.815C200.354 54.0077 208.594 53.2737 216.839 52.5976C222.99 51.9949 230.022 51.3197 235.905 50.7862C240.903 50.3329 245.079 49.9812 247.178 49.8637C247.701 49.8344 248.105 49.819 248.362 49.8212C248.479 49.8221 248.601 49.8264 248.692 49.8458C248.714 49.8507 248.762 49.8618 248.817 49.8884C248.842 49.9006 248.898 49.9295 248.964 49.989L248.967 49.9914C248.987 50.0099 249.061 50.0752 249.146 50.2138Z" fill="white"/>
</svg>
