<svg width="332" height="87" viewBox="0 0 332 87" fill="none" xmlns="http://www.w3.org/2000/svg">
<rect width="3.32807" height="11.5997" rx="1.66403" transform="matrix(0.999272 -0.0381577 0.0292325 0.999573 301.759 52.2258)" fill="white"/>
<rect width="3.48246" height="11.5997" rx="1.74123" transform="matrix(0.999272 -0.0381578 0.0292324 0.999573 26.6593 62.7307)" fill="white"/>
<path d="M38.3693 26.8387C38.2912 27.0732 38.4083 27.2296 38.6425 27.2296H45.045C45.3182 27.2296 45.4744 27.0732 45.5525 26.8387L46.8017 22.7337H55.4294L56.6787 26.8387C56.7567 27.0732 56.9129 27.2296 57.1862 27.2296H63.6277C63.8619 27.2296 63.979 27.0732 63.9009 26.8387L54.9219 1.03611C54.8438 0.801541 54.6877 0.645164 54.4144 0.645164H48.051C47.7777 0.645164 47.6216 0.801541 47.5435 1.03611L38.3693 26.8387ZM48.5585 17.0259L51.1351 8.73779H51.2522L53.7117 17.0259H48.5585Z" fill="black"/>
<path d="M67.2055 21.1308C68.611 25.4704 72.0464 27.6988 76.8482 27.6988C81.5329 27.6988 84.8903 25.4704 86.3738 21.6391C86.4909 21.3654 86.4519 21.209 86.1786 21.0917L80.9864 18.8242C80.7131 18.707 80.557 18.7851 80.4398 19.0588C79.6981 20.6226 78.7612 21.5609 76.9654 21.5609C75.2867 21.5609 74.2326 20.7399 73.7641 19.2543C73.4909 18.4333 73.3737 17.6123 73.3737 13.9374C73.3737 10.2625 73.4909 9.44149 73.7641 8.6205C74.2326 7.1349 75.2867 6.31391 76.9654 6.31391C78.7612 6.31391 79.6981 7.25218 80.4398 8.81598C80.557 9.08964 80.7131 9.16783 80.9864 9.05054L86.1786 6.78305C86.4519 6.66576 86.4909 6.50938 86.3738 6.23572C84.8903 2.40443 81.5329 0.176025 76.8482 0.176025C72.0464 0.176025 68.611 2.40443 67.2055 6.74395C66.62 8.54231 66.4248 9.98882 66.4248 13.9374C66.4248 17.886 66.62 19.3325 67.2055 21.1308Z" fill="black"/>
<path d="M103.364 27.2296C103.599 27.2296 103.755 27.0732 103.755 26.8387V6.97852C103.755 6.82214 103.833 6.74395 103.989 6.74395H110.509C110.743 6.74395 110.899 6.58757 110.899 6.353V1.03611C110.899 0.801541 110.743 0.645164 110.509 0.645164H90.1301C89.8959 0.645164 89.7397 0.801541 89.7397 1.03611V6.353C89.7397 6.58757 89.8959 6.74395 90.1301 6.74395H96.6497C96.8058 6.74395 96.8839 6.82214 96.8839 6.97852V26.8387C96.8839 27.0732 97.0401 27.2296 97.2743 27.2296H103.364Z" fill="black"/>
<path d="M124.522 26.8387C124.444 27.0732 124.562 27.2296 124.796 27.2296H131.198C131.471 27.2296 131.628 27.0732 131.706 26.8387L132.955 22.7337H141.583L142.832 26.8387C142.91 27.0732 143.066 27.2296 143.339 27.2296H149.781C150.015 27.2296 150.132 27.0732 150.054 26.8387L141.075 1.03611C140.997 0.801541 140.841 0.645164 140.568 0.645164H134.204C133.931 0.645164 133.775 0.801541 133.697 1.03611L124.522 26.8387ZM134.712 17.0259L137.288 8.73779H137.405L139.865 17.0259H134.712Z" fill="black"/>
<path d="M154.693 21.1699C156.099 25.5095 159.963 27.6988 164.687 27.6988C169.528 27.6988 173.276 25.314 174.681 20.8963C175.228 19.2543 175.384 17.2605 175.384 14.7193V12.6864C175.384 12.4518 175.228 12.2954 174.994 12.2954H165.507C165.273 12.2954 165.117 12.4518 165.117 12.6864V17.1041C165.117 17.3386 165.273 17.495 165.507 17.495H168.396C168.552 17.495 168.63 17.5732 168.63 17.7296C168.63 18.4333 168.552 18.9806 168.396 19.4498C167.966 20.8181 166.6 21.5609 164.882 21.5609C162.969 21.5609 161.759 20.7008 161.252 19.2152C160.978 18.316 160.861 17.1041 160.861 13.9374C160.861 10.7707 160.939 9.59787 161.252 8.6596C161.72 7.17399 162.891 6.31391 164.687 6.31391C166.522 6.31391 167.576 7.01761 168.474 8.46412C168.591 8.6596 168.825 8.73779 169.06 8.6205L174.135 6.47029C174.369 6.353 174.447 6.11843 174.33 5.84477C172.846 2.44352 169.567 0.176025 164.687 0.176025C159.963 0.176025 156.099 2.36533 154.693 6.70486C154.068 8.73779 153.912 10.3016 153.912 13.9374C153.912 17.5732 154.068 19.137 154.693 21.1699Z" fill="black"/>
<path d="M177.912 26.8387C177.834 27.0732 177.951 27.2296 178.185 27.2296H184.587C184.861 27.2296 185.017 27.0732 185.095 26.8387L186.344 22.7337H194.972L196.221 26.8387C196.299 27.0732 196.455 27.2296 196.729 27.2296H203.17C203.404 27.2296 203.521 27.0732 203.443 26.8387L194.464 1.03611C194.386 0.801541 194.23 0.645164 193.957 0.645164H187.593C187.32 0.645164 187.164 0.801541 187.086 1.03611L177.912 26.8387ZM188.101 17.0259L190.678 8.73779H190.795L193.254 17.0259H188.101Z" fill="black"/>
<path d="M207.926 26.8387C207.926 27.0732 208.082 27.2296 208.317 27.2296H214.407C214.641 27.2296 214.797 27.0732 214.797 26.8387V1.03611C214.797 0.801541 214.641 0.645164 214.407 0.645164H208.317C208.082 0.645164 207.926 0.801541 207.926 1.03611V26.8387Z" fill="black"/>
<path d="M221.049 26.8387C221.049 27.0732 221.205 27.2296 221.439 27.2296H226.904C227.139 27.2296 227.295 27.0732 227.295 26.8387V11.8263H227.529L235.454 26.8387C235.571 27.1123 235.844 27.2296 236.118 27.2296H241.856C242.091 27.2296 242.247 27.0732 242.247 26.8387V1.03611C242.247 0.801541 242.091 0.645164 241.856 0.645164H236.391C236.157 0.645164 236.001 0.801541 236.001 1.03611V16.0876H235.844L227.841 1.03611C227.724 0.762447 227.451 0.645164 227.178 0.645164H221.439C221.205 0.645164 221.049 0.801541 221.049 1.03611V26.8387Z" fill="black"/>
<path d="M258.07 27.6988C265.175 27.6988 268.923 24.102 268.923 19.1761C268.923 14.1329 265.956 11.5526 260.139 10.7316L258.734 10.5361C256.196 10.2234 255.338 9.48059 255.338 8.30774C255.338 7.01761 256.313 6.07934 258.265 6.07934C260.374 6.07934 262.365 6.82214 264.238 8.07317C264.434 8.19046 264.629 8.15136 264.785 7.95589L267.713 3.69456C267.869 3.45999 267.83 3.26451 267.635 3.10813C265.253 1.30977 261.818 0.176025 258.148 0.176025C252.136 0.176025 248.271 3.49908 248.271 8.46412C248.271 13.4292 251.395 16.0094 257.133 16.8304L258.539 17.0259C261.154 17.3777 261.896 18.1205 261.896 19.2543C261.896 20.7399 260.608 21.7564 258.148 21.7564C255.494 21.7564 252.995 20.5053 251.395 19.0979C251.238 18.9415 251.004 18.9415 250.848 19.137L247.334 23.281C247.139 23.4765 247.178 23.7502 247.374 23.9066C249.365 25.8613 253.737 27.6988 258.07 27.6988Z" fill="black"/>
<path d="M285.583 27.2296C285.817 27.2296 285.974 27.0732 285.974 26.8387V6.97852C285.974 6.82214 286.052 6.74395 286.208 6.74395H292.727C292.962 6.74395 293.118 6.58757 293.118 6.353V1.03611C293.118 0.801541 292.962 0.645164 292.727 0.645164H272.349C272.115 0.645164 271.958 0.801541 271.958 1.03611V6.353C271.958 6.58757 272.115 6.74395 272.349 6.74395H278.868C279.025 6.74395 279.103 6.82214 279.103 6.97852V26.8387C279.103 27.0732 279.259 27.2296 279.493 27.2296H285.583Z" fill="black"/>
<path d="M39.3964 76.0767C41.5704 82.7894 46.8242 86.1759 54.0105 86.1759C60.9552 86.1759 66.0279 82.7894 68.3227 77.0443C68.5038 76.7419 68.3831 76.4395 68.0207 76.3186L61.4383 73.3553C61.076 73.1739 60.7741 73.2948 60.5929 73.6577C59.4455 76.3186 57.5131 78.3142 54.0709 78.3142C50.8703 78.3142 48.8171 76.6209 47.9112 73.7786C47.4281 72.2667 47.247 70.8154 47.247 64.9493C47.247 59.0832 47.4281 57.6319 47.9112 56.12C48.8171 53.2777 50.8703 51.5844 54.0709 51.5844C57.5131 51.5844 59.4455 53.58 60.5929 56.2409C60.7741 56.6038 61.076 56.7247 61.4383 56.5433L68.0207 53.58C68.3831 53.4591 68.5038 53.1567 68.3227 52.8543C66.0279 47.1092 60.9552 43.7227 54.0105 43.7227C46.8242 43.7227 41.5704 47.1092 39.3964 53.8219C38.4906 56.4828 38.249 58.5994 38.249 64.9493C38.249 71.2991 38.4906 73.4158 39.3964 76.0767Z" fill="black"/>
<path d="M92.1277 86.1759C99.3139 86.1759 104.99 82.8498 107.104 76.1976C108.01 73.3553 108.251 71.0573 108.251 64.9493C108.251 58.8413 108.01 56.5433 107.104 53.701C104.99 47.0488 99.3139 43.7227 92.1277 43.7227C84.9414 43.7227 79.2648 47.0488 77.1512 53.701C76.2454 56.5433 76.0038 58.8413 76.0038 64.9493C76.0038 71.0573 76.2454 73.3553 77.1512 76.1976C79.2648 82.8498 84.9414 86.1759 92.1277 86.1759ZM92.1277 78.3142C88.7459 78.3142 86.5719 76.6209 85.6661 73.7786C85.1829 72.3272 85.0018 70.3316 85.0018 64.9493C85.0018 59.567 85.1829 57.5714 85.6661 56.12C86.5719 53.2777 88.7459 51.5844 92.1277 51.5844C95.5094 51.5844 97.6834 53.2777 98.5893 56.12C99.0724 57.5714 99.2535 59.567 99.2535 64.9493C99.2535 70.3316 99.0724 72.3272 98.5893 73.7786C97.6834 76.6209 95.5094 78.3142 92.1277 78.3142Z" fill="black"/>
<path d="M134.396 85.5107C134.758 85.5107 134.999 85.2688 135.12 84.906L148.164 45.0531C148.285 44.6298 148.043 44.3879 147.681 44.3879H139.891C139.468 44.3879 139.227 44.5693 139.106 44.9926L131.135 71.9644H130.953L122.741 44.9926C122.62 44.5693 122.378 44.3879 121.955 44.3879H114.105C113.682 44.3879 113.441 44.6298 113.561 45.0531L126.605 84.906C126.726 85.2688 126.968 85.5107 127.39 85.5107H134.396Z" fill="black"/>
<path d="M155.757 84.906C155.757 85.2688 155.998 85.5107 156.361 85.5107H164.03C164.392 85.5107 164.634 85.2688 164.634 84.906V44.9926C164.634 44.6298 164.392 44.3879 164.03 44.3879H156.361C155.998 44.3879 155.757 44.6298 155.757 44.9926V84.906Z" fill="black"/>
<path d="M175.525 84.906C175.525 85.2688 175.766 85.5107 176.129 85.5107H191.407C198.593 85.5107 203.605 82.4265 205.598 76.2581C206.323 73.96 206.685 71.662 206.685 64.9493C206.685 58.2366 206.323 55.9386 205.598 53.6405C203.605 47.4721 198.593 44.3879 191.407 44.3879H176.129C175.766 44.3879 175.525 44.6298 175.525 44.9926V84.906ZM184.402 77.2257V52.6729C184.402 52.431 184.523 52.3101 184.764 52.3101H189.414C193.521 52.3101 195.996 53.5196 197.023 56.8457C197.446 58.0552 197.687 59.6275 197.687 64.9493C197.687 70.2711 197.446 71.8434 197.023 73.0529C195.996 76.379 193.521 77.5885 189.414 77.5885H184.764C184.523 77.5885 184.402 77.4676 184.402 77.2257Z" fill="black"/>
<path d="M215.797 68.7598H233.189C233.551 68.7598 233.793 68.5179 233.793 68.1551V61.9866C233.793 61.6238 233.551 61.3819 233.189 61.3819H215.797C215.435 61.3819 215.193 61.6238 215.193 61.9866V68.1551C215.193 68.5179 215.435 68.7598 215.797 68.7598Z" fill="black"/>
<path d="M247.9 84.906C247.9 85.2688 248.141 85.5107 248.504 85.5107H255.75C256.113 85.5107 256.354 85.2688 256.354 84.906V44.9926C256.354 44.6298 256.113 44.3879 255.75 44.3879H248.987C248.564 44.3879 248.202 44.5088 247.9 44.7507L241.015 49.7097C240.713 49.9516 240.593 50.1935 240.593 50.5563V58.0552C240.593 58.539 240.895 58.6599 241.257 58.418L247.779 53.9429H247.9V84.906Z" fill="black"/>
<path d="M271.371 84.906C271.19 85.2688 271.31 85.5107 271.793 85.5107H279.463C279.885 85.5107 280.006 85.4502 280.187 85.0874L290.152 66.824C292.084 63.3165 293.171 60.1718 293.171 56.6643C293.171 48.5606 287.253 43.7227 279.402 43.7227C271.612 43.7227 265.634 48.5606 265.634 56.8457C265.634 64.405 270.948 69.243 277.41 69.243C278.497 69.243 279.523 69.0616 279.946 68.8802L280.067 69.0011L271.371 84.906ZM279.402 62.2884C276.081 62.2884 273.967 59.9299 273.967 56.5433C273.967 53.2172 276.081 50.8587 279.402 50.8587C282.724 50.8587 284.837 53.2172 284.837 56.5433C284.837 59.9299 282.724 62.2884 279.402 62.2884Z" fill="black"/>
<rect opacity="0.85" width="278.628" height="11.5997" rx="3" transform="matrix(0.999272 -0.0381578 0.0292324 0.999573 26.6593 62.7307)" fill="white"/>
</svg>
