<svg width="16" height="20" viewBox="0 0 16 20" fill="none" xmlns="http://www.w3.org/2000/svg">
<path d="M11.588 13.268C11.8787 13.3414 12.2906 13.3166 12.5577 13.2433C13.4062 13.0241 13.4308 12.3896 13.4545 12.1209C13.4791 11.7551 13.2603 11.1205 12.3152 10.95C11.8787 10.8766 11.588 10.8766 11.3209 10.8766C11.0538 10.8766 10.836 10.9014 10.497 10.95C10.4004 10.9748 10.2792 10.9986 10.2063 10.9986C9.96389 10.7547 9.79438 10.5108 9.52732 10.1449C9.01783 9.41321 8.70345 8.90063 8.19397 7.99838C8.12105 7.87643 8.04813 7.7297 7.97616 7.60775C8.02446 7.38862 8.07275 7.14472 8.122 6.85126L8.19491 6.51019C8.38904 5.58316 8.43734 5.26589 8.29151 4.51038C8.12199 3.6815 7.53959 3.48619 7.2735 3.50999C7.12767 3.50999 6.54622 3.60717 6.30379 4.46082C6.13428 5.0458 6.15796 5.48501 6.30379 6.09477C6.40038 6.53399 6.61914 7.07038 6.98278 7.72872C6.86157 8.24131 6.71572 8.70433 6.44964 9.48462C6.18258 10.2897 6.06136 10.607 6.01307 10.8013C5.94015 11.0204 5.94015 11.0204 5.79526 11.3863L5.77064 11.4349C5.60113 11.8979 5.31042 12.4591 5.11628 12.8249C4.82556 12.9716 4.53484 13.1174 4.12194 13.3613C3.24881 13.8739 2.64274 14.2398 2.42494 14.8247C2.30373 15.142 2.01301 15.9223 2.64275 16.4349C2.86056 16.6302 3.15224 16.7274 3.41833 16.7274C3.70905 16.7274 3.9761 16.6302 4.1939 16.4349C4.48462 16.1662 4.60583 15.9223 4.84826 15.4593C4.92118 15.3373 4.9941 15.1906 5.09069 14.9962C5.47896 14.2398 5.72139 13.7281 5.76968 13.6548C5.76968 13.63 5.7943 13.6062 5.81798 13.5814C5.98749 13.5081 6.18162 13.4347 6.39942 13.3375C7.19963 12.9964 7.53864 12.8983 8.26592 12.6544L8.60493 12.5324C8.87199 12.4353 9.06516 12.3857 9.25929 12.3133C9.50172 12.2161 9.69586 12.1666 9.88999 12.0942C10.0595 12.2409 10.229 12.4114 10.4478 12.582C10.9336 12.9755 11.248 13.1709 11.588 13.268ZM11.3209 11.8541C11.5633 11.8541 11.8058 11.8541 12.1448 11.9275C12.3872 11.9761 12.4601 12.0742 12.4601 12.098V12.2686C12.4601 12.2686 12.4355 12.2934 12.3143 12.3172C12.1448 12.3658 11.9023 12.3658 11.8294 12.342C11.7082 12.2934 11.5141 12.22 11.1021 11.8789C11.1997 11.8542 11.248 11.8541 11.3209 11.8541ZM4.24225 14.5371C4.14565 14.7076 4.07274 14.8781 3.99982 15.0001C3.75739 15.4631 3.7091 15.5613 3.56325 15.707C3.46666 15.7804 3.34545 15.7318 3.27253 15.6823C3.24791 15.6575 3.17594 15.6089 3.34545 15.1697C3.44205 14.9258 3.90323 14.6333 4.31516 14.3646C4.29054 14.4389 4.26687 14.4875 4.24225 14.5371ZM7.24787 4.73146C7.27249 4.6581 7.29616 4.58474 7.32079 4.56092C7.34541 4.58569 7.34541 4.63428 7.36908 4.70764C7.46567 5.24403 7.46568 5.41457 7.32079 6.12247C7.29616 6.04911 7.27249 5.97575 7.27249 5.92716C7.15128 5.39077 7.12665 5.12207 7.24787 4.73146ZM8.94486 11.3663C8.77535 11.4397 8.58122 11.4883 8.31416 11.5855L7.97515 11.7074C7.36908 11.9027 7.03007 12.0247 6.47229 12.2438C6.54521 12.0971 6.59351 11.9513 6.66642 11.8046L6.69105 11.756C6.83688 11.3654 6.83688 11.3654 6.93347 11.1215C6.98177 10.9509 7.10298 10.6089 7.37004 9.82859C7.49125 9.51132 7.56417 9.21883 7.6371 8.97493C8.00074 9.60947 8.29146 10.0973 8.72802 10.707C8.89753 10.9262 9.01874 11.1215 9.16459 11.292C9.09072 11.3168 9.01778 11.3416 8.94486 11.3663ZM16 2.95171C16 1.31681 14.7149 0 13.1156 0H2.88441C1.28494 0 0 1.31668 0 2.95171V17.0732C0 18.6833 1.28506 20 2.88441 20H10.6903H10.7869C10.8116 20 10.8116 20 10.8352 19.9752C10.8599 19.9752 10.8599 19.9752 10.8835 19.9505C10.9082 19.9505 10.9082 19.9257 10.9318 19.9257C10.9318 19.9257 10.9564 19.9257 10.9564 19.9009C10.9811 19.8761 11.0047 19.8523 11.0294 19.8276L15.8297 14.9246C15.8297 14.9246 15.8297 14.8999 15.8543 14.8999C15.8789 14.8751 15.8789 14.8751 15.9026 14.8513C15.9026 14.8265 15.9272 14.8265 15.9272 14.8027C15.9272 14.7779 15.9518 14.7779 15.9518 14.7541C15.9518 14.7293 15.9518 14.7293 15.9765 14.7055V14.6569V14.5597L15.9755 2.95143L16 2.95171ZM0.969469 17.0485V2.95171C0.969469 1.87893 1.8426 0.975707 2.88426 0.975707H13.1145C14.1808 0.975707 15.0293 1.85415 15.0293 2.95171V14.1227L11.9032 14.1217C10.9817 14.1217 10.2062 14.902 10.2062 15.829V19.0247H2.88412C1.84243 19.0247 0.969469 18.1461 0.969469 17.0485ZM14.3512 15.0973L11.1997 18.3176V15.829C11.1997 15.4146 11.515 15.0973 11.927 15.0973H14.3512Z" fill="#EB3D2C"/>
</svg>
